<?xml version="1.0" encoding="UTF-8" standalone="no"?>
<!-- Created with Inkscape (http://www.inkscape.org/) -->

<svg
   xmlns:dc="http://purl.org/dc/elements/1.1/"
   xmlns:cc="http://creativecommons.org/ns#"
   xmlns:rdf="http://www.w3.org/1999/02/22-rdf-syntax-ns#"
   xmlns:svg="http://www.w3.org/2000/svg"
   xmlns="http://www.w3.org/2000/svg"
   xmlns:sodipodi="http://sodipodi.sourceforge.net/DTD/sodipodi-0.dtd"
   xmlns:inkscape="http://www.inkscape.org/namespaces/inkscape"
   width="39.759266mm"
   height="7.7469997mm"
   viewBox="0 0 39.759266 7.7469997"
   version="1.1"
   id="svg8"
   inkscape:version="0.92.3 (2405546, 2018-03-11)"
   sodipodi:docname="logo.svg">
  <defs
     id="defs2" />
  <sodipodi:namedview
     id="base"
     pagecolor="#ffffff"
     bordercolor="#666666"
     borderopacity="1.0"
     inkscape:pageopacity="0.0"
     inkscape:pageshadow="2"
     inkscape:zoom="2"
     inkscape:cx="164.14617"
     inkscape:cy="-112.90002"
     inkscape:document-units="mm"
     inkscape:current-layer="layer1"
     showgrid="false"
     fit-margin-top="0"
     fit-margin-left="0"
     fit-margin-right="0"
     fit-margin-bottom="0"
     inkscape:window-width="1853"
     inkscape:window-height="1025"
     inkscape:window-x="67"
     inkscape:window-y="27"
     inkscape:window-maximized="1" />
  <metadata
     id="metadata5">
    <rdf:RDF>
      <cc:Work
         rdf:about="">
        <dc:format>image/svg+xml</dc:format>
        <dc:type
           rdf:resource="http://purl.org/dc/dcmitype/StillImage" />
        <dc:title></dc:title>
      </cc:Work>
    </rdf:RDF>
  </metadata>
  <g
     inkscape:label="Layer 1"
     inkscape:groupmode="layer"
     id="layer1"
     transform="translate(-47.826083,-105.9232)">
    <g
       aria-label="gocover"
       style="font-style:normal;font-variant:normal;font-weight:normal;font-stretch:normal;font-size:10.58333302px;line-height:1.25;font-family:'IBM Plex Sans';-inkscape-font-specification:'IBM Plex Sans';letter-spacing:0px;word-spacing:0px;fill:#3f51b5;fill-opacity:1;stroke:none;stroke-width:0.26458332"
       id="text3715">
      <path
         d="m 52.10175,106.0502 v 0.762 h -0.02117 c -0.370417,-0.61383 -1.037167,-0.889 -1.74625,-0.889 -1.566333,0 -2.50825,1.16417 -2.50825,2.667 0,1.43934 1.005417,2.6035 2.529417,2.6035 0.635,0 1.291166,-0.24341 1.661583,-0.74083 h 0.02117 v 0.37042 c 0,1.00541 -0.381,1.70391 -1.608667,1.70391 -0.709083,0 -1.23825,-0.26458 -1.74625,-0.73025 l -0.762,1.03717 c 0.719667,0.635 1.576917,0.83608 2.518833,0.83608 1.979084,0 2.868084,-1.16416 2.868084,-2.99508 v -4.62492 z m -1.502834,1.016 c 0.92075,0 1.502834,0.61384 1.502834,1.49225 0,0.84667 -0.5715,1.49225 -1.513417,1.49225 -0.85725,0 -1.49225,-0.66675 -1.49225,-1.47108 0,-0.89958 0.613833,-1.51342 1.502833,-1.51342 z"
         style="font-style:normal;font-variant:normal;font-weight:bold;font-stretch:normal;font-family:'Avenir LT Std';-inkscape-font-specification:'Avenir LT Std Bold';fill:#3f51b5;fill-opacity:1;stroke-width:0.26458332"
         id="path4567" />
      <path
         d="m 54.502678,108.5902 c 0,1.59809 1.227666,2.667 2.76225,2.667 1.534583,0 2.76225,-1.06891 2.76225,-2.667 0,-1.59808 -1.227667,-2.667 -2.76225,-2.667 -1.534584,0 -2.76225,1.06892 -2.76225,2.667 z m 1.27,0 c 0,-0.79375 0.560916,-1.524 1.49225,-1.524 0.931333,0 1.49225,0.73025 1.49225,1.524 0,0.79375 -0.560917,1.524 -1.49225,1.524 -0.931334,0 -1.49225,-0.73025 -1.49225,-1.524 z"
         style="font-style:normal;font-variant:normal;font-weight:bold;font-stretch:normal;font-family:'Avenir LT Std';-inkscape-font-specification:'Avenir LT Std Bold';fill:#3f51b5;fill-opacity:1;stroke-width:0.26458332"
         id="path4569" />
      <path
         d="m 65.555646,106.69579 c -0.486833,-0.53975 -1.195916,-0.77259 -1.8415,-0.77259 -1.534583,0 -2.762249,1.06892 -2.762249,2.667 0,1.59809 1.227666,2.667 2.762249,2.667 0.4445,0 1.312334,-0.1905 1.830917,-0.70908 l -0.846667,-0.91017 c -0.232833,0.30692 -0.592666,0.47625 -0.98425,0.47625 -0.931333,0 -1.492249,-0.73025 -1.492249,-1.524 0,-0.79375 0.560916,-1.524 1.492249,-1.524 0.338667,0 0.66675,0.20109 0.963084,0.508 z"
         style="font-style:normal;font-variant:normal;font-weight:bold;font-stretch:normal;font-family:'Avenir LT Std';-inkscape-font-specification:'Avenir LT Std Bold';fill:#3f51b5;fill-opacity:1;stroke-width:0.26458332"
         id="path4571" />
      <path
         d="m 66.057528,108.5902 c 0,1.59809 1.227667,2.667 2.76225,2.667 1.534584,0 2.76225,-1.06891 2.76225,-2.667 0,-1.59808 -1.227666,-2.667 -2.76225,-2.667 -1.534583,0 -2.76225,1.06892 -2.76225,2.667 z m 1.27,0 c 0,-0.79375 0.560917,-1.524 1.49225,-1.524 0.931334,0 1.49225,0.73025 1.49225,1.524 0,0.79375 -0.560916,1.524 -1.49225,1.524 -0.931333,0 -1.49225,-0.73025 -1.49225,-1.524 z"
         style="font-style:normal;font-variant:normal;font-weight:bold;font-stretch:normal;font-family:'Avenir LT Std';-inkscape-font-specification:'Avenir LT Std Bold';fill:#3f51b5;fill-opacity:1;stroke-width:0.26458332"
         id="path4573" />
      <path
         d="m 74.147164,111.1302 h 1.354666 l 2.00025,-5.08 h -1.30175 l -1.36525,3.556 h -0.02117 l -1.354667,-3.556 H 72.07283 Z"
         style="font-style:normal;font-variant:normal;font-weight:bold;font-stretch:normal;font-family:'Avenir LT Std';-inkscape-font-specification:'Avenir LT Std Bold';fill:#3f51b5;fill-opacity:1;stroke-width:0.26458332"
         id="path4575" />
      <path
         d="m 83.148618,109.0347 v -0.34925 c 0,-1.76741 -0.963083,-2.76225 -2.38125,-2.76225 -1.534583,0 -2.76225,1.06892 -2.76225,2.667 0,1.59809 1.227667,2.667 2.76225,2.667 0.804333,0 1.55575,-0.28575 2.148417,-1.016 l -0.910167,-0.68791 c -0.3175,0.39158 -0.73025,0.68791 -1.36525,0.68791 -0.709083,0 -1.280583,-0.45508 -1.36525,-1.2065 z m -3.8735,-0.9525 c 0.09525,-0.73025 0.560917,-1.2065 1.312334,-1.2065 0.793749,0 1.280583,0.46567 1.291166,1.2065 z"
         style="font-style:normal;font-variant:normal;font-weight:bold;font-stretch:normal;font-family:'Avenir LT Std';-inkscape-font-specification:'Avenir LT Std Bold';fill:#3f51b5;fill-opacity:1;stroke-width:0.26458332"
         id="path4577" />
      <path
         d="m 84.336267,111.1302 h 1.27 v -2.71991 c 0,-0.27517 0.169333,-1.28059 1.36525,-1.28059 0.201083,0 0.402166,0.0423 0.613833,0.0953 v -1.22766 c -0.148167,-0.0423 -0.296333,-0.0741 -0.455083,-0.0741 -0.66675,0 -1.227667,0.34925 -1.502834,0.93134 h -0.02117 v -0.80434 h -1.27 z"
         style="font-style:normal;font-variant:normal;font-weight:bold;font-stretch:normal;font-family:'Avenir LT Std';-inkscape-font-specification:'Avenir LT Std Bold';fill:#3f51b5;fill-opacity:1;stroke-width:0.26458332"
         id="path4579" />
    </g>
    <text
       xml:space="preserve"
       style="font-style:normal;font-weight:normal;font-size:10.58333302px;line-height:1.25;font-family:sans-serif;letter-spacing:0px;word-spacing:0px;fill:#000000;fill-opacity:1;stroke:none;stroke-width:0.26458332"
       x="49.080208"
       y="125.81458"
       id="text3719"><tspan
         sodipodi:role="line"
         id="tspan3717"
         x="49.080208"
         y="135.17834"
         style="stroke-width:0.26458332" /></text>
  </g>
</svg>
